<?xml version="1.0" standalone="no"?>
<!DOCTYPE svg PUBLIC "-//W3C//DTD SVG 20010904//EN"
 "http://www.w3.org/TR/2001/REC-SVG-20010904/DTD/svg10.dtd">
<svg version="1.0" xmlns="http://www.w3.org/2000/svg"
 width="887.000000pt" height="887.000000pt" viewBox="0 0 887.000000 887.000000"
 preserveAspectRatio="xMidYMid meet">
<metadata>
Created by potrace 1.14, written by Peter Selinger 2001-2017
</metadata>
<g transform="translate(0.000000,887.000000) scale(0.100000,-0.100000)"
fill="#000000" stroke="none">
<path d="M0 8845 l0 -25 4435 0 4435 0 0 25 0 25 -4435 0 -4435 0 0 -25z"/>
<path d="M170 8131 c-50 -18 -58 -25 -66 -61 -9 -39 -28 -80 -36 -80 -5 0 -8
-7 -8 -16 0 -12 -7 -15 -30 -12 l-30 5 0 -3364 c0 -3360 0 -3364 20 -3358 22
7 26 -5 8 -23 -18 -18 -18 -27 -24 -497 l-5 -420 52 80 c326 501 539 783 644
850 68 43 120 66 164 72 25 4 51 12 58 19 7 7 39 16 70 21 72 10 461 10 526
-1 l47 -7 0 -42 c-1 -68 -34 -336 -60 -477 -5 -30 -19 -113 -30 -185 -33 -214
-72 -405 -81 -399 -5 3 -9 1 -9 -5 0 -5 4 -11 10 -13 6 -2 0 -44 -15 -106 -14
-57 -25 -105 -25 -108 0 -2 219 -4 486 -4 l487 0 -7 148 c-11 271 -19 936 -11
1034 7 94 8 98 30 98 13 0 36 -4 50 -10 25 -9 26 -13 20 -57 -5 -43 -4 -45 7
-23 6 14 13 27 14 28 2 2 63 3 136 3 225 -3 434 22 573 67 28 9 55 17 60 18 6
1 13 2 17 3 4 0 -2 27 -14 59 -15 39 -21 83 -22 142 -1 82 0 88 45 175 42 80
64 120 134 234 11 18 39 61 62 96 68 104 154 278 141 286 -6 4 -18 31 -25 61
-8 29 -22 71 -33 92 -22 45 -20 52 9 36 12 -6 21 -7 21 -3 0 5 -26 24 -57 42
-61 36 -213 137 -298 197 -79 57 -134 103 -219 187 l-79 78 -23 -22 c-21 -20
-30 -21 -96 -15 -116 11 -108 3 -346 299 -99 122 -125 173 -95 184 6 2 26 -11
43 -29 l33 -33 -23 35 c-13 19 -32 45 -43 57 -20 22 -32 98 -52 326 -7 77 -6
79 14 72 16 -5 20 -3 15 9 -3 8 -14 18 -25 21 -13 4 -19 16 -19 35 0 16 -3 36
-7 46 -5 13 -3 16 10 11 22 -8 21 -3 -7 46 -23 40 -42 141 -62 333 l-6 60 41
18 c31 15 67 19 161 20 66 0 120 4 120 7 0 3 -18 12 -40 19 -27 9 -40 19 -40
31 0 40 214 211 338 270 74 35 114 7 87 -59 -11 -26 -20 -31 -64 -37 -41 -5
-51 -11 -51 -26 0 -29 39 -120 73 -171 33 -49 46 -54 97 -39 25 7 25 7 3 15
-29 9 -56 50 -72 106 -7 25 -15 53 -17 63 -4 11 0 17 10 17 9 0 16 5 16 11 0
5 9 9 19 7 10 -2 28 6 40 16 21 19 22 19 38 -4 23 -32 51 -60 62 -60 16 0 29
24 38 70 7 31 14 44 24 41 8 -2 28 -4 44 -5 38 -1 95 -41 95 -67 0 -11 -10
-23 -24 -28 -17 -7 -25 -20 -30 -52 -4 -23 -5 -43 -4 -44 2 -1 17 4 34 11 l30
13 -1 108 c-1 66 -8 124 -17 149 -8 22 -13 45 -11 51 5 13 145 -18 168 -37 20
-17 95 -20 95 -4 0 7 8 14 18 16 12 3 6 10 -23 25 -61 33 -118 60 -139 67 -12
4 -16 12 -12 23 12 30 -181 11 -370 -37 -88 -22 -178 -46 -200 -54 -46 -16
-174 -75 -174 -80 0 -2 12 -1 28 1 l27 4 -25 -21 c-69 -58 -151 -132 -215
-192 -82 -77 -144 -128 -156 -128 -5 0 -12 0 -16 0 -4 0 -17 64 -29 142 -12
79 -31 204 -43 278 -12 74 -26 164 -31 200 -5 36 -18 124 -30 195 -21 134 -74
539 -83 633 -3 29 -1 69 5 89 18 67 173 209 283 259 51 24 54 27 38 39 -25 19
-15 25 64 38 37 6 72 17 76 25 6 9 28 12 71 11 l63 -2 76 76 c77 77 115 98
102 56 -7 -20 -6 -20 34 3 32 18 44 21 58 12 14 -8 39 -8 97 2 48 9 97 11 124
6 43 -7 45 -8 62 -62 15 -47 39 -109 79 -205 5 -11 22 -49 38 -85 17 -36 34
-76 38 -90 4 -14 27 -67 51 -118 24 -51 44 -95 44 -98 0 -8 260 -527 271 -540
5 -6 22 -36 39 -67 74 -140 406 -672 471 -757 19 -25 106 -145 200 -275 28
-38 60 -81 72 -95 12 -14 45 -56 72 -94 28 -38 61 -81 75 -96 14 -14 68 -78
120 -140 203 -243 415 -473 558 -604 49 -45 61 -62 56 -78 -6 -19 -107 -145
-126 -159 -5 -3 -6 -17 -3 -31 4 -14 -7 -103 -24 -199 -66 -383 -90 -696 -71
-937 17 -211 32 -280 92 -399 l51 -102 -32 -193 c-17 -106 -41 -227 -52 -268
-46 -164 -82 -276 -96 -291 -7 -9 -11 -22 -8 -30 3 -8 -6 -50 -19 -94 -27 -91
-112 -367 -121 -396 -6 -19 5 -19 509 -19 297 0 516 4 516 9 0 48 26 250 51
391 52 301 70 384 86 397 8 6 12 16 9 22 -4 5 4 56 18 113 13 57 30 143 37
192 13 92 35 133 64 122 9 -3 15 3 17 17 3 18 13 23 73 33 39 7 107 15 152 19
82 7 82 7 94 -19 9 -19 15 -23 20 -14 5 7 23 13 41 14 18 0 128 6 243 13 116
7 255 10 310 7 158 -9 371 -39 410 -59 23 -11 197 -127 205 -136 3 -3 23 -19
45 -36 22 -16 54 -41 70 -56 17 -15 89 -79 160 -142 72 -63 173 -162 225 -218
52 -57 114 -124 137 -147 23 -24 68 -76 100 -115 31 -40 60 -74 63 -77 3 -3
19 -23 35 -45 17 -22 33 -42 36 -45 3 -3 18 -24 33 -48 16 -25 31 -40 38 -36
6 4 8 3 4 -4 -8 -13 65 -132 82 -132 6 0 12 -4 12 -10 0 -5 16 -10 35 -10 l35
0 0 491 0 490 -22 -7 c-30 -9 -48 -23 -48 -39 0 -13 -107 -48 -122 -39 -5 3
-6 -6 -2 -20 4 -19 1 -28 -15 -38 -17 -11 -21 -23 -21 -72 0 -48 2 -56 13 -47
11 9 14 5 14 -22 0 -17 -2 -24 -4 -14 -3 9 -9 17 -14 17 -5 0 -12 -8 -15 -17
-3 -10 -10 -27 -16 -37 -8 -15 -7 -18 5 -13 11 4 13 0 10 -14 -7 -26 -30 -24
-39 4 -4 12 -17 36 -30 53 -13 17 -24 34 -24 38 0 4 -27 53 -61 109 -33 56
-93 156 -132 222 -39 66 -96 163 -127 215 -30 52 -66 115 -80 140 -13 25 -41
71 -62 103 -21 32 -38 61 -38 65 0 4 -10 19 -23 34 -35 42 -117 177 -224 368
-14 25 -29 49 -34 55 -5 5 -9 13 -9 17 0 12 38 10 45 -2 3 -6 13 -10 21 -10 8
0 20 -5 27 -10 23 -19 88 -60 96 -60 25 0 267 -180 321 -239 14 -15 60 -52
103 -82 131 -91 138 -97 199 -159 33 -34 64 -58 70 -54 6 4 9 1 6 -7 -3 -8 11
-33 31 -56 39 -45 43 -50 126 -163 31 -41 60 -77 65 -78 6 -2 10 79 10 211 0
188 -2 216 -16 221 -9 4 -14 13 -10 21 3 8 1 15 -3 15 -11 0 -141 126 -141
137 0 10 -116 129 -206 210 -96 86 -111 99 -174 148 -30 24 -82 74 -115 110
-33 37 -80 88 -105 114 -25 26 -52 56 -60 66 -8 11 -39 48 -68 83 -57 69 -113
152 -148 221 -19 36 -20 46 -9 57 7 7 16 37 20 66 4 29 13 62 21 73 7 11 16
50 20 88 6 64 6 67 -15 67 -18 0 -21 6 -21 40 0 34 -3 40 -21 40 -20 0 -21 3
-14 80 l7 80 -26 0 c-21 0 -26 5 -26 24 0 13 -7 29 -15 36 -11 9 -15 34 -15
96 0 68 3 84 15 84 8 0 15 -8 15 -17 0 -13 3 -14 11 -6 9 9 4 19 -16 39 -16
16 -25 34 -22 45 3 11 1 19 -4 19 -5 0 -9 18 -9 40 0 23 5 40 11 40 6 0 9 7 5
15 -8 21 14 80 25 64 4 -7 5 -17 2 -23 -4 -5 1 -7 10 -3 21 8 32 -9 29 -47 -3
-34 27 -74 39 -54 4 7 11 9 15 5 4 -3 1 -13 -6 -22 -10 -12 -10 -15 5 -15 26
0 13 -22 -28 -49 -27 -17 -34 -27 -25 -33 11 -6 11 -11 0 -25 -7 -10 -15 -26
-18 -35 -4 -10 -10 -18 -15 -18 -5 0 -9 -4 -9 -8 0 -5 43 -13 96 -20 83 -9 99
-14 120 -37 21 -23 30 -26 60 -20 20 3 50 15 67 26 18 10 40 19 50 19 9 0 17
5 17 11 0 24 41 67 71 73 19 3 33 13 36 25 3 12 17 21 41 26 52 10 88 65 42
65 -17 0 -20 7 -20 40 0 29 4 40 15 40 11 0 15 11 15 40 0 29 4 40 15 40 31 0
14 27 -25 40 -22 7 -40 17 -40 22 0 5 -7 16 -15 24 -8 8 -17 31 -21 52 -3 20
-15 52 -25 69 -15 27 -16 33 -4 33 11 0 15 12 15 40 0 29 -4 40 -15 40 -11 0
-15 13 -15 53 0 29 -5 58 -12 65 -9 9 -9 12 0 12 7 0 12 7 12 15 0 9 -9 15
-25 15 -25 0 -25 1 -25 79 0 45 4 81 10 83 15 5 17 95 2 110 -15 15 -22 7 -32
-34 l-8 -33 -1 39 c-1 22 -9 48 -18 59 -10 11 -12 17 -5 13 9 -5 15 -1 19 13
3 12 13 21 24 21 10 0 20 4 24 10 9 14 -49 40 -90 40 -30 0 -35 3 -35 23 l0
22 -20 -25 c-21 -27 -21 -27 -38 14 -10 22 -16 26 -24 18 -7 -7 -21 -12 -32
-12 -47 0 -93 -20 -105 -46 -6 -15 -15 -24 -18 -20 -6 6 -18 -13 -54 -86 -23
-44 -23 -48 -5 -48 14 0 26 -29 26 -62 0 -33 -15 -18 -33 32 -17 48 -29 60
-41 41 -3 -5 1 -14 9 -21 8 -7 15 -25 15 -41 0 -19 5 -29 15 -29 9 0 18 -7 21
-15 4 -8 15 -15 25 -15 10 0 19 -4 19 -10 0 -13 101 -13 134 0 20 7 26 6 26
-4 0 -8 8 -12 23 -9 23 5 24 3 19 -49 -3 -45 -1 -56 17 -72 25 -23 30 -71 6
-62 -17 6 -21 -19 -5 -29 12 -7 -29 -55 -47 -55 -7 0 -13 -3 -13 -7 0 -5 -26
-8 -58 -9 -32 -1 -68 -6 -79 -13 -12 -6 -40 -11 -62 -11 -34 0 -41 3 -41 20 0
11 -4 20 -10 20 -5 0 -10 18 -10 39 0 22 -5 41 -11 43 -17 6 -1 158 17 158 20
0 17 18 -5 29 -28 15 -59 74 -62 118 -4 67 0 93 16 93 11 0 15 11 15 35 0 23
6 38 15 41 12 5 14 15 9 43 -4 20 -10 40 -15 46 -5 5 -9 24 -9 42 0 23 -5 33
-15 33 -17 0 -21 35 -5 45 16 10 11 44 -10 67 -11 12 -20 28 -20 35 0 7 -8 13
-18 13 -12 0 -23 13 -32 35 -9 22 -23 38 -41 44 -19 7 -29 19 -34 43 -7 27 -9
30 -15 14 -6 -19 -7 -19 -12 2 -3 11 -1 23 6 26 6 2 -8 5 -31 5 -40 1 -43 -1
-43 -25 0 -14 -4 -23 -10 -19 -14 9 -12 -8 4 -30 10 -14 11 -27 4 -54 -6 -20
-12 -53 -15 -73 -8 -58 -32 -73 -119 -71 -41 1 -90 7 -109 13 -27 9 -39 9 -50
0 -8 -6 -18 -10 -22 -7 -4 2 -17 1 -28 -3 -17 -6 -68 0 -133 15 -13 3 -20 10
-17 15 3 5 -6 17 -20 26 -17 11 -24 23 -20 34 3 10 -8 30 -30 53 -19 20 -35
42 -35 50 0 8 -9 34 -19 58 -11 24 -21 58 -24 75 -3 18 -10 47 -15 65 -6 19
-23 79 -38 134 -14 55 -34 129 -44 165 -10 36 -25 94 -34 130 -17 70 -19 79
-37 153 -15 63 -35 76 -25 16 4 -24 11 -48 16 -53 5 -5 7 -28 3 -51 -3 -28 -1
-46 8 -56 15 -15 49 -133 49 -168 0 -12 -6 -21 -14 -21 -15 0 -27 22 -25 48 1
10 4 7 9 -8 7 -23 8 -23 9 -3 1 12 -4 25 -9 28 -6 4 -8 10 -5 15 3 5 -15 28
-40 51 -32 30 -45 49 -45 69 0 33 -28 60 -61 60 -29 0 -99 66 -99 93 0 15 -2
15 -19 -2 -13 -13 -17 -27 -13 -46 3 -21 1 -26 -9 -23 -17 5 -25 58 -10 58 6
0 11 9 11 19 0 11 4 23 10 26 15 10 12 35 -5 35 -8 0 -15 -7 -15 -15 0 -8 -6
-15 -13 -15 -9 0 -20 29 -31 83 -18 87 -37 162 -61 238 -8 26 -15 56 -15 67 0
11 -7 33 -15 48 l-15 29 0 -35 c0 -19 7 -48 15 -64 16 -30 35 -162 27 -184 -2
-7 2 -25 9 -39 11 -21 11 -27 2 -30 -7 -3 -13 -11 -13 -19 0 -10 -12 -14 -40
-14 -29 0 -40 -4 -40 -15 0 -11 11 -15 40 -15 22 0 40 -4 40 -10 0 -5 -25 -10
-55 -10 -53 0 -55 1 -45 20 11 21 -2 60 -20 60 -18 0 -31 -39 -20 -60 10 -19
8 -20 -48 -20 -54 0 -60 2 -97 40 -32 33 -46 40 -77 40 -37 0 -38 1 -38 37 l0
37 -40 -39 -40 -39 -43 42 c-36 35 -49 42 -83 42 -28 0 -47 6 -59 20 -10 11
-26 20 -37 20 -11 0 -18 -7 -18 -20 0 -17 -7 -20 -40 -20 l-40 0 0 40 c0 22 5
40 10 40 23 0 7 29 -24 44 -40 19 -46 20 -46 6 0 -5 9 -10 19 -10 22 0 35 -15
26 -30 -4 -6 -13 -5 -26 3 -16 10 -22 9 -30 -3 -8 -11 -9 -5 -5 23 3 22 1 35
-5 32 -5 -4 -9 -1 -9 4 0 6 -9 11 -20 11 -18 0 -19 3 -10 20 6 11 9 32 6 47
-2 16 -5 32 -5 37 -1 6 -8 1 -16 -10 -15 -19 -15 -19 -27 0 -6 11 -12 54 -13
95 -3 105 -16 211 -26 211 -5 0 -9 12 -9 28 0 30 -12 54 -26 51 -24 -4 -32 4
-38 41 -3 22 -11 40 -16 40 -6 0 -10 22 -10 48 0 26 -4 52 -10 58 -5 5 -11 23
-13 39 -2 17 -10 45 -17 63 -11 30 -16 33 -42 30 -21 -4 -31 0 -35 11 -3 9
-10 29 -16 45 l-10 28 -18 -23 -19 -24 0 43 c0 29 -8 55 -22 74 l-21 30 -15
-27 -14 -28 -16 33 c-9 19 -28 38 -44 44 -15 6 -28 16 -28 23 0 7 -4 13 -10
13 -5 0 -10 -11 -10 -24 0 -14 5 -28 10 -31 6 -3 10 -28 10 -56 l0 -49 -55 0
-55 0 0 40 c0 22 -4 40 -10 40 -5 0 -10 -18 -10 -40 0 -39 -1 -40 -35 -40 -34
0 -35 1 -35 40 l0 40 -140 0 -140 0 0 40 0 40 -40 0 c-29 0 -40 -4 -40 -15 0
-8 -4 -15 -9 -15 -5 0 -16 7 -25 15 -20 20 -46 19 -46 -3 0 -14 -7 -17 -40
-14 -26 3 -40 9 -40 18 0 19 -38 18 -58 -3 -16 -16 -17 -16 -20 0 -3 13 -14
17 -43 17 -32 0 -39 3 -39 20 0 17 -7 20 -40 20 -33 0 -40 3 -40 20 0 18 -7
20 -79 20 -54 0 -81 4 -85 13 -5 10 -7 10 -12 0 -3 -7 -19 -13 -35 -13 -26 0
-28 2 -19 19 13 25 13 61 0 61 -5 0 -10 -9 -10 -20 0 -17 -7 -20 -40 -20 -22
0 -40 -4 -40 -10 0 -5 -7 -7 -15 -4 -17 7 -21 34 -5 34 6 0 10 4 10 9 0 5 -14
7 -31 4 -16 -2 -36 0 -42 5 -7 5 -45 8 -84 8 -64 -1 -73 1 -73 16 0 14 -8 18
-40 18 -33 0 -40 3 -40 20 0 17 -7 20 -40 20 -33 0 -40 -3 -40 -20 0 -18 -7
-20 -80 -20 -72 0 -80 2 -80 19 0 11 5 21 12 23 9 3 9 6 0 12 -7 4 -12 2 -12
-3 0 -15 -45 -14 -58 2 -5 6 -12 23 -15 37 -3 18 -5 15 -6 -12 l-1 -38 -53 0
c-53 0 -54 1 -73 40 -20 41 -29 45 -91 41 -40 -3 -43 16 -11 74 27 50 31 82
11 82 -9 0 -18 -8 -20 -18 -6 -23 -36 -29 -105 -22 -49 5 -58 3 -58 -10 0 -11
12 -17 43 -20 23 -2 5 -4 -40 -5 -46 -1 -83 -6 -83 -11 0 -15 -92 -18 -97 -4
-3 7 -13 13 -24 13 -10 0 -30 11 -44 24 -30 27 -59 24 -52 -5 3 -12 0 -19 -9
-19 -8 0 -14 5 -14 12 0 9 -3 9 -12 0 -7 -7 -25 -12 -40 -12 -21 0 -28 -5 -28
-20 0 -15 -9 -21 -40 -26 -22 -4 -44 -12 -50 -19 -12 -15 9 -75 27 -75 7 0 10
7 6 15 -4 13 2 15 38 9 81 -11 87 -19 37 -48 -18 -11 -40 -26 -49 -35 -14 -15
-14 -17 0 -29 14 -12 14 -13 -5 -9 -16 3 -26 -2 -35 -19 -9 -18 -15 -21 -21
-12 -6 10 -18 2 -46 -27 -73 -80 -98 -111 -131 -162 -19 -29 -37 -53 -41 -53
-4 0 -20 -24 -35 -52 -16 -29 -31 -55 -35 -58 -5 -5 -48 -74 -80 -130 -40 -71
-145 -292 -162 -340 -10 -30 -22 -89 -25 -131 -5 -69 -3 -82 22 -135 36 -76
101 -137 164 -153 44 -11 53 -10 92 9 66 31 79 55 95 183 17 128 21 147 36
147 6 0 8 -9 4 -22 -24 -78 -31 -729 -10 -805 9 -32 -21 -30 -42 2 -35 54
-126 137 -171 157 -30 14 -68 22 -103 22 -55 0 -143 -27 -168 -51 -7 -7 -17
-13 -22 -13 -5 0 -12 -9 -15 -20 -13 -40 -26 -8 -21 49 3 31 8 110 11 176 12
241 43 404 135 720 42 141 161 425 178 425 4 0 16 16 26 35 11 19 23 35 28 35
4 0 8 6 8 14 0 7 11 22 25 32 14 10 25 24 25 31 0 7 7 13 15 13 8 0 15 4 15
10 0 16 141 150 193 183 15 10 27 22 27 27 0 13 -46 24 -67 15 -17 -6 -17 -7
1 -20 19 -14 14 -35 -8 -35 -7 0 -21 -9 -31 -20 -20 -22 -33 -24 -54 -11 -11
7 -9 13 9 31 l22 22 -7 -22 c-7 -21 -6 -21 23 -6 45 23 48 35 6 33 -45 -3
-105 -55 -79 -69 23 -13 19 -31 -4 -18 -29 15 -32 13 -26 -17 4 -21 3 -23 -3
-9 -8 19 -9 19 -30 -2 -12 -12 -22 -28 -22 -36 0 -8 -6 -17 -12 -19 -10 -4 -9
-8 2 -17 13 -10 12 -11 -6 -7 -16 3 -30 -8 -60 -50 -21 -30 -39 -59 -39 -65 0
-6 -15 -27 -32 -46 -18 -20 -33 -41 -33 -46 -1 -6 -14 -27 -30 -46 -17 -19
-30 -38 -30 -42 0 -4 -12 -24 -26 -45 -38 -56 -120 -230 -150 -320 -19 -55
-28 -107 -31 -178 -5 -89 -3 -105 16 -147 l23 -47 -17 -253 c-9 -139 -18 -254
-19 -255 -1 -1 -20 6 -42 17 -21 10 -55 21 -74 23 -19 3 -48 8 -64 12 -28 8
-28 8 -21 69 18 165 93 550 132 676 14 47 29 99 33 115 23 87 107 304 157 405
62 124 91 173 136 233 16 21 27 41 23 44 -3 4 -7 4 -9 2 -2 -2 -18 -23 -35
-45 -18 -23 -32 -45 -32 -49 0 -3 -12 -22 -26 -40 -14 -19 -23 -38 -20 -44 3
-5 -1 -11 -9 -15 -8 -3 -15 -14 -15 -25 0 -11 -5 -23 -10 -26 -6 -3 -18 -23
-28 -43 -10 -20 -23 -46 -29 -57 -6 -11 -22 -41 -34 -67 -23 -46 -49 -62 -64
-38 -4 6 -13 5 -25 -2 -15 -9 -22 -10 -31 -1 -16 16 -1 35 23 27 20 -6 20 -6
-1 17 -12 13 -24 34 -27 46 -4 16 -14 23 -30 23 -14 0 -24 6 -24 14 0 17 -46
24 -111 18 -38 -4 -49 -8 -49 -22 0 -14 -11 -19 -52 -23 -45 -5 -55 -2 -67 14
-7 10 -20 19 -27 19 -16 0 -20 56 -4 62 14 4 -11 68 -27 68 -7 0 -21 9 -30 20
-10 11 -28 20 -40 20 -27 0 -47 33 -39 64 3 12 18 35 34 51 16 17 33 45 36 63
7 30 6 32 -21 33 -15 0 -22 3 -15 6 6 2 12 13 12 24 0 18 -7 19 -109 18 -59
-1 -113 1 -119 5 -6 3 -12 -4 -14 -16 -3 -22 -4 -22 -35 10 -35 36 -43 39 -43
17 0 -11 -11 -15 -40 -15 -36 0 -40 3 -40 25 0 23 3 25 49 25 60 0 80 18 51
45 -11 10 -20 26 -20 37 0 24 -31 23 -37 -2 -3 -12 -14 -20 -27 -20 -17 0 -21
-6 -21 -31 0 -37 -27 -61 -47 -41 -6 6 -13 32 -14 57 -2 36 1 47 17 56 17 8
23 7 35 -8 7 -10 14 -13 14 -7 0 7 9 14 20 17 14 3 20 14 20 31 0 24 6 28 37
25 10 0 33 73 33 111 0 19 -7 48 -15 64 -19 35 -19 46 -1 46 13 0 26 41 26 86
0 17 6 24 20 24 11 0 20 -5 20 -11 0 -8 5 -8 15 1 36 30 0 80 -56 80 -10 0
-25 8 -35 17 -13 13 -19 14 -22 5 -6 -18 -62 -16 -62 3 0 13 -4 14 -21 4 -17
-9 -25 -7 -43 10 -26 24 -26 24 -86 2z m1966 -550 c-3 -5 -19 -11 -36 -13 -36
-5 -27 8 10 15 14 2 26 5 28 6 2 0 1 -3 -2 -8z m-116 -5 c0 -3 -4 -8 -10 -11
-5 -3 -10 -1 -10 4 0 6 5 11 10 11 6 0 10 -2 10 -4z m-275 -216 c3 -5 -1 -10
-10 -10 -9 0 -13 5 -10 10 3 6 8 10 10 10 2 0 7 -4 10 -10z m-45 -70 c0 -5 -4
-10 -10 -10 -5 0 -10 5 -10 10 0 6 5 10 10 10 6 0 10 -4 10 -10z m-30 -30 c0
-5 -2 -10 -4 -10 -3 0 -8 5 -11 10 -3 6 -1 10 4 10 6 0 11 -4 11 -10z m-60
-100 c0 -5 -5 -10 -11 -10 -5 0 -7 5 -4 10 3 6 8 10 11 10 2 0 4 -4 4 -10z
m3240 -67 c0 -10 3 -28 6 -40 5 -17 2 -23 -10 -23 -9 0 -16 8 -16 18 0 9 -3
27 -6 40 -5 16 -2 22 10 22 9 0 16 -8 16 -17z m37 -55 c-3 -8 -6 -5 -6 6 -1
11 2 17 5 13 3 -3 4 -12 1 -19z m-714 -68 c7 -1 38 -44 71 -96 32 -52 63 -93
70 -91 6 2 12 -5 12 -17 2 -30 35 -116 44 -116 4 0 10 -13 13 -29 3 -16 13
-36 22 -44 8 -9 15 -22 15 -31 0 -18 10 -44 60 -151 21 -44 41 -91 45 -105 4
-14 14 -34 21 -45 8 -11 14 -30 14 -42 0 -13 5 -23 10 -23 6 0 10 -8 10 -17 0
-10 9 -43 19 -73 10 -30 16 -60 14 -67 -7 -19 -42 -26 -113 -24 -69 2 -128 24
-210 77 -101 65 -163 79 -224 50 -67 -32 -79 -21 -115 104 -5 19 -19 68 -31
109 -43 152 -93 412 -83 437 13 34 46 9 57 -43 8 -35 27 -37 68 -9 32 23 62
20 105 -10 38 -26 97 -83 98 -96 0 -7 50 -48 58 -48 3 0 7 6 10 13 2 6 2 2 0
-10 -3 -19 1 -23 21 -23 46 0 47 78 3 190 -11 30 -24 57 -27 60 -4 3 -26 40
-49 83 -28 51 -40 84 -36 95 5 12 9 13 12 5 3 -7 10 -13 16 -13z m874 -22 c-3
-7 -5 -2 -5 12 0 14 2 19 5 13 2 -7 2 -19 0 -25z m-112 12 c3 -5 -1 -10 -10
-10 -9 0 -13 5 -10 10 3 6 8 10 10 10 2 0 7 -4 10 -10z m-3818 -82 c-3 -7 -5
-2 -5 12 0 14 2 19 5 13 2 -7 2 -19 0 -25z m3556 -31 c13 -15 20 -18 24 -9 10
26 25 11 19 -20 -4 -24 -3 -29 4 -18 5 8 10 12 11 8 1 -5 3 -12 4 -18 1 -5 3
-13 4 -17 1 -5 6 -1 11 7 7 11 14 12 25 5 22 -13 18 -31 -6 -28 -24 3 -25 -15
-1 -24 9 -4 20 -11 23 -16 4 -5 10 9 14 32 7 42 25 57 25 21 0 -11 5 -20 10
-20 6 0 10 9 10 20 0 11 5 20 10 20 6 0 10 -8 10 -18 0 -14 8 -17 45 -17 29 0
45 4 45 13 0 6 -11 12 -24 12 -30 0 -43 17 -26 33 9 9 14 8 24 -5 15 -20 62
-24 68 -6 3 7 7 5 11 -5 4 -11 -1 -25 -14 -38 -11 -11 -18 -24 -14 -27 3 -4
10 0 15 7 5 9 15 11 26 7 17 -7 16 -9 -9 -24 -31 -19 -33 -30 -12 -58 15 -18
15 -18 9 8 -6 25 -4 28 20 26 21 -2 26 -7 26 -31 0 -16 7 -36 16 -45 12 -11
15 -27 11 -56 -3 -23 -3 -35 0 -28 8 21 23 13 23 -13 0 -25 2 -31 33 -93 15
-31 12 -74 -6 -73 -17 1 -37 30 -31 45 3 9 1 16 -4 16 -6 0 -12 -10 -14 -22
-2 -15 -11 -24 -26 -26 -16 -3 -22 -8 -18 -19 3 -8 6 -18 6 -23 0 -5 6 -11 13
-13 6 -2 -1 -3 -17 -1 -16 2 -61 5 -100 6 -48 1 -57 3 -28 5 23 2 42 9 42 15
0 11 -73 6 -117 -7 -18 -6 -25 -2 -34 19 -7 14 -18 26 -25 26 -7 0 -10 8 -7
20 3 12 -2 29 -12 40 -9 10 -14 23 -10 29 4 7 -1 8 -12 4 -16 -6 -16 -5 -5 9
11 14 11 21 1 40 -7 13 -14 32 -16 42 -2 11 -7 24 -11 30 -5 6 -19 39 -32 74
-14 34 -28 62 -32 62 -5 0 -8 5 -8 10 0 6 -16 33 -36 61 -44 62 -40 84 14 74
20 -3 45 -16 55 -28z m444 -14 c-3 -10 -5 -4 -5 12 0 17 2 24 5 18 2 -7 2 -21
0 -30z m-3977 1 c0 -8 -10 -14 -25 -14 -26 0 -35 25 -12 33 18 6 37 -3 37 -19z
m3850 1 c0 -8 -7 -15 -15 -15 -16 0 -20 12 -8 23 11 12 23 8 23 -8z m-343
-162 c-3 -10 -5 -4 -5 12 0 17 2 24 5 18 2 -7 2 -21 0 -30z m38 -53 c17 -34
19 -50 5 -50 -5 0 -10 11 -10 24 0 14 -4 28 -10 31 -5 3 -10 10 -10 16 0 17 9
9 25 -21z m422 -276 c-3 -3 -12 -4 -19 -1 -8 3 -5 6 6 6 11 1 17 -2 13 -5z
m1154 -442 c-6 -13 -11 -35 -11 -49 0 -15 -3 -24 -6 -20 -4 3 -3 37 1 74 6 58
9 64 17 43 6 -16 5 -33 -1 -48z m215 -200 c-4 -3 -12 0 -19 7 -9 9 -9 14 3 21
11 7 16 5 18 -6 2 -9 1 -18 -2 -22z m223 -279 c0 -25 -1 -25 -8 -8 -5 11 -7
23 -4 28 8 14 13 7 12 -20z m16 -63 c3 -5 1 -10 -4 -10 -6 0 -11 5 -11 10 0 6
2 10 4 10 3 0 8 -4 11 -10z m-5805 -722 c0 -15 -30 -48 -44 -48 -6 0 -5 5 2
12 7 7 12 20 12 30 0 10 7 18 15 18 8 0 15 -5 15 -12z m7170 -282 c0 -3 -4 -8
-10 -11 -5 -3 -10 -1 -10 4 0 6 5 11 10 11 6 0 10 -2 10 -4z m-7025 -526 c-3
-5 -1 -10 6 -10 16 0 6 -312 -13 -361 -7 -20 -26 -52 -41 -72 -18 -24 -23 -37
-14 -40 7 -3 5 -6 -5 -6 -10 -1 -18 -7 -18 -14 0 -7 -13 -29 -30 -47 -16 -18
-30 -41 -30 -50 0 -9 -11 -23 -25 -30 -14 -7 -25 -19 -25 -25 0 -6 -11 -22
-24 -34 -14 -13 -23 -28 -20 -35 2 -6 -6 -18 -18 -26 -13 -8 -36 -29 -53 -45
-16 -17 -44 -37 -61 -44 -18 -7 -41 -23 -53 -37 -11 -13 -26 -24 -32 -24 -6 0
-8 -7 -5 -16 4 -11 -1 -18 -14 -21 -11 -3 -20 -9 -20 -14 0 -5 -9 -9 -20 -9
-17 0 -20 7 -20 40 0 22 4 40 9 40 5 0 12 17 16 37 4 21 11 41 16 44 6 3 12
50 15 105 6 130 8 144 23 153 12 8 51 72 76 127 8 17 21 36 29 44 9 7 16 21
16 31 0 11 5 19 10 19 6 0 10 6 10 13 0 8 11 24 25 37 14 13 23 25 21 28 -3 2
11 22 31 43 20 21 43 48 51 60 33 47 116 120 143 126 16 3 32 10 35 14 3 5 7
9 10 9 3 0 2 -4 -1 -10z m6622 -132 c-3 -7 -5 -2 -5 12 0 14 2 19 5 13 2 -7 2
-19 0 -25z m163 -788 c0 -29 -4 -40 -15 -40 -11 0 -15 11 -15 40 0 29 4 40 15
40 11 0 15 -11 15 -40z m-42 -77 c2 -8 -5 -13 -17 -13 -12 0 -21 6 -21 16 0
18 31 15 38 -3z m342 -593 c0 -5 -7 -7 -15 -4 -8 4 -15 8 -15 10 0 2 7 4 15 4
8 0 15 -4 15 -10z m50 -50 c0 -5 -5 -10 -11 -10 -5 0 -7 5 -4 10 3 6 8 10 11
10 2 0 4 -4 4 -10z m49 -46 c1 -1 1 -8 -1 -14 -2 -8 -13 -4 -28 10 l-25 21 25
-7 c14 -3 27 -8 29 -10z m273 -564 c19 -17 19 -20 5 -20 -9 0 -17 5 -17 10 0
6 -7 10 -15 10 -8 0 -15 5 -15 10 0 16 19 12 42 -10z m88 -85 c0 -8 -7 -15
-15 -15 -16 0 -20 12 -8 23 11 12 23 8 23 -8z m110 -1315 c0 -5 -2 -10 -4 -10
-3 0 -8 5 -11 10 -3 6 -1 10 4 10 6 0 11 -4 11 -10z m74 -106 c11 -28 6 -39
-9 -20 -8 11 -15 23 -15 28 0 14 18 9 24 -8z"/>
<path d="M5055 6540 c3 -5 8 -10 11 -10 2 0 4 5 4 10 0 6 -5 10 -11 10 -5 0
-7 -4 -4 -10z"/>
<path d="M5120 6405 c0 -8 4 -15 10 -15 5 0 7 7 4 15 -4 8 -8 15 -10 15 -2 0
-4 -7 -4 -15z"/>
<path d="M4930 6370 c0 -5 18 -10 41 -10 24 0 38 4 34 10 -3 6 -22 10 -41 10
-19 0 -34 -4 -34 -10z"/>
<path d="M4975 6340 c-4 -6 8 -10 29 -10 20 0 36 5 36 10 0 6 -13 10 -29 10
-17 0 -33 -4 -36 -10z"/>
<path d="M560 2965 c0 -8 4 -15 10 -15 5 0 7 7 4 15 -4 8 -8 15 -10 15 -2 0
-4 -7 -4 -15z"/>
<path d="M455 8140 c3 -5 10 -10 16 -10 5 0 9 5 9 10 0 6 -7 10 -16 10 -8 0
-12 -4 -9 -10z"/>
<path d="M544 8039 c-3 -6 -1 -16 5 -22 8 -8 11 -5 11 11 0 24 -5 28 -16 11z"/>
<path d="M2320 7680 c0 -5 7 -10 16 -10 8 0 12 5 9 10 -3 6 -10 10 -16 10 -5
0 -9 -4 -9 -10z"/>
<path d="M3025 7520 c-3 -5 -1 -10 4 -10 6 0 11 5 11 10 0 6 -2 10 -4 10 -3 0
-8 -4 -11 -10z"/>
<path d="M1640 7499 c0 -5 5 -7 10 -4 6 3 10 8 10 11 0 2 -4 4 -10 4 -5 0 -10
-5 -10 -11z"/>
<path d="M3550 7440 c0 -5 5 -10 10 -10 6 0 10 5 10 10 0 6 -4 10 -10 10 -5 0
-10 -4 -10 -10z"/>
<path d="M1556 7395 c-3 -8 -1 -15 4 -15 6 0 10 7 10 15 0 8 -2 15 -4 15 -2 0
-6 -7 -10 -15z"/>
<path d="M4065 7377 c-4 -10 -5 -21 -1 -24 10 -10 18 4 13 24 -4 17 -4 17 -12
0z"/>
<path d="M4718 7325 c2 -14 11 -25 18 -25 17 0 17 5 4 31 -15 27 -28 24 -22
-6z"/>
<path d="M5188 7103 c7 -3 16 -2 19 1 4 3 -2 6 -13 5 -11 0 -14 -3 -6 -6z"/>
<path d="M916 7053 c-11 -11 -6 -23 9 -23 8 0 15 4 15 9 0 13 -16 22 -24 14z"/>
<path d="M5122 7030 c0 -14 2 -19 5 -12 2 6 2 18 0 25 -3 6 -5 1 -5 -13z"/>
<path d="M6152 6500 c0 -14 2 -19 5 -12 2 6 2 18 0 25 -3 6 -5 1 -5 -13z"/>
<path d="M6180 6406 c0 -8 5 -18 10 -21 6 -3 10 1 10 9 0 8 -4 18 -10 21 -5 3
-10 -1 -10 -9z"/>
<path d="M6470 6331 c0 -12 5 -21 10 -21 6 0 10 6 10 14 0 8 -4 18 -10 21 -5
3 -10 -3 -10 -14z"/>
<path d="M6504 6244 c12 -60 23 -113 40 -184 30 -124 39 -150 48 -150 10 0 3
51 -18 124 -8 27 -14 72 -14 99 0 34 -6 57 -20 74 -11 14 -20 34 -20 44 0 10
-5 21 -12 25 -8 5 -9 -3 -4 -32z"/>
<path d="M6080 6025 c0 -9 5 -15 11 -13 6 2 11 8 11 13 0 5 -5 11 -11 13 -6 2
-11 -4 -11 -13z"/>
<path d="M6570 5710 c0 -30 4 -40 16 -40 12 0 15 6 10 23 -3 12 -6 30 -6 40 0
9 -4 17 -10 17 -5 0 -10 -18 -10 -40z"/>
<path d="M2855 5716 c-49 -12 -115 -33 -145 -46 -48 -21 -206 -110 -235 -132
-31 -24 -85 -66 -110 -83 -15 -11 -38 -29 -50 -40 -12 -11 -46 -40 -75 -65
-28 -24 -57 -54 -62 -65 -6 -11 24 13 68 54 43 40 97 85 119 99 22 13 60 42
85 62 61 50 117 78 195 95 138 32 204 39 346 38 86 0 178 -3 205 -7 l49 -6
-43 38 c-36 32 -59 42 -135 60 -109 26 -99 27 -212 -2z"/>
<path d="M2133 5238 c-19 -25 -24 -38 -15 -38 5 0 17 11 26 25 17 25 7 36 -11
13z"/>
<path d="M3728 5120 c14 -27 27 -48 29 -46 6 5 -40 96 -48 96 -4 0 5 -22 19
-50z"/>
<path d="M7200 5094 c0 -8 5 -12 10 -9 6 3 10 10 10 16 0 5 -4 9 -10 9 -5 0
-10 -7 -10 -16z"/>
<path d="M7263 5091 c0 -11 5 -17 9 -15 11 7 10 34 -1 34 -6 0 -9 -9 -8 -19z"/>
<path d="M7228 5054 c2 -13 8 -24 13 -24 14 0 10 37 -4 43 -10 4 -13 -2 -9
-19z"/>
<path d="M2490 4200 c0 -5 5 -10 10 -10 6 0 10 5 10 10 0 6 -4 10 -10 10 -5 0
-10 -4 -10 -10z"/>
<path d="M7790 4170 c0 -11 7 -20 15 -20 13 0 14 4 5 20 -6 11 -13 20 -15 20
-3 0 -5 -9 -5 -20z"/>
<path d="M2370 3550 c0 -16 4 -30 8 -30 5 0 7 14 4 30 -2 17 -6 30 -8 30 -2 0
-4 -13 -4 -30z"/>
<path d="M7840 3310 c0 -22 5 -40 10 -40 6 0 10 18 10 40 0 22 -4 40 -10 40
-5 0 -10 -18 -10 -40z"/>
<path d="M7900 3070 c0 -22 5 -40 10 -40 6 0 10 18 10 40 0 22 -4 40 -10 40
-5 0 -10 -18 -10 -40z"/>
<path d="M8851 1031 c-10 -6 -10 -10 -1 -16 13 -8 24 -1 19 14 -3 6 -10 7 -18
2z"/>
<path d="M4145 910 c-3 -5 -2 -10 4 -10 5 0 13 5 16 10 3 6 2 10 -4 10 -5 0
-13 -4 -16 -10z"/>
</g>
</svg>
